<svg width="2834" height="1655" viewBox="0 0 2834 1655" fill="none" xmlns="http://www.w3.org/2000/svg">
<path d="M1251 145L1251 445L201.5 309.5L-6.14145e-06 285.5L0 145L1251 145Z" fill="black"/>
<path d="M1251 1449L1251 1149L201.5 1284.5L-6.14145e-06 1308.5L0 1449L1251 1449Z" fill="black"/>
<path d="M2180.43 628.313L1961.21 889.789L1430 306L1430 2.99999L2180.43 628.313Z" fill="black"/>
<path d="M2420.94 720.734L2210 539L2589.32 69.7961L2830.6 311.073L2420.94 720.734Z" fill="black"/>
<path d="M2203.64 1055.64L2418.33 859.053L2833.54 1274.26L2592.26 1515.54L2203.64 1055.64Z" fill="black"/>
<path d="M1464 1588L1464 1288.5L2109.85 570.815L2387 797.5L1464 1588Z" fill="black"/>
<path d="M1386.14 672L1553 797L1386.14 922L354 922L354 672L1386.14 672Z" fill="black"/>
<path d="M2384 796.5L2175.5 969.705L2175.5 623.295L2384 796.5Z" fill="black"/>
</svg>
